{
  "accessors": [
    {
      "bufferView": 2,
      "componentType": 5126,
      "count": 2752,
      "max": [
        1.3733500242233276,
        0.51586002111434937,
        2.0201799869537354
      ],
      "min": [
        -1.867110013961792,
        -4.5353899002075195,
        0.011130000464618206
      ],
      "type": "VEC3"
    },
    {
      "bufferView": 2,
      "byteOffset": 33024,
      "componentType": 5126,
      "count": 2752,
      "max": [
        0.99662184715270996,
        0.99634641408920288,
        0.99729841947555542
      ],
      "min": [
        -0.99277770519256592,
        -0.99960315227508545,
        -0.99870967864990234
      ],
      "type": "VEC3"
    },
    {
      "bufferView": 3,
      "componentType": 5126,
      "count": 2752,
      "max": [
        0.9998619556427002,
        0.99807840585708618,
        0.9998023509979248,
        1
      ],
      "min": [
        -0.99994796514511108,
        -0.99825447797775269,
        -0.99912405014038086,
        -1
      ],
      "type": "VEC4"
    },
    {
      "bufferView": 1,
      "componentType": 5126,
      "count": 2752,
      "max": [
        0.9946100115776062,
        0.98869997262954712
      ],
      "min": [
        0.00279000005684793,
        0.0018700000364333391
      ],
      "type": "VEC2"
    },
    {
      "bufferView": 0,
      "componentType": 5125,
      "count": 11670,
      "max": [
        2751
      ],
      "min": [
        0
      ],
      "type": "SCALAR"
    },
    {
      "bufferView": 2,
      "byteOffset": 66048,
      "componentType": 5126,
      "count": 4,
      "max": [
        1,
        1.072659969329834,
        0
      ],
      "min": [
        -1,
        -0.92733997106552124,
        0
      ],
      "type": "VEC3"
    },
    {
      "bufferView": 2,
      "byteOffset": 66096,
      "componentType": 5126,
      "count": 4,
      "max": [
        0,
        0,
        1
      ],
      "min": [
        0,
        0,
        1
      ],
      "type": "VEC3"
    },
    {
      "bufferView": 3,
      "byteOffset": 44032,
      "componentType": 5126,
      "count": 4,
      "max": [
        1,
        0,
        0,
        1
      ],
      "min": [
        1,
        0,
        0,
        1
      ],
      "type": "VEC4"
    },
    {
      "bufferView": 1,
      "byteOffset": 22016,
      "componentType": 5126,
      "count": 4,
      "max": [
        1,
        1
      ],
      "min": [
        0,
        0
      ],
      "type": "VEC2"
    },
    {
      "bufferView": 0,
      "byteOffset": 46680,
      "componentType": 5125,
      "count": 6,
      "max": [
        3
      ],
      "min": [
        0
      ],
      "type": "SCALAR"
    }
  ],
  "asset": {
    "extras": {
      "author": "luyssport (https://sketchfab.com/luyssport)",
      "license": "CC-BY-NC-SA-4.0 (http://creativecommons.org/licenses/by-nc-sa/4.0/)",
      "source": "https://sketchfab.com/models/c7dbfeb8f3614f0f992edd1a048835fc",
      "title": "gun"
    },
    "generator": "Sketchfab-3.19.6",
    "version": "2.0"
  },
  "bufferViews": [
    {
      "buffer": 0,
      "byteLength": 46704,
      "byteOffset": 0,
      "name": "floatBufferViews",
      "target": 34963
    },
    {
      "buffer": 0,
      "byteLength": 22048,
      "byteOffset": 46704,
      "byteStride": 8,
      "name": "floatBufferViews",
      "target": 34962
    },
    {
      "buffer": 0,
      "byteLength": 66144,
      "byteOffset": 68752,
      "byteStride": 12,
      "name": "floatBufferViews",
      "target": 34962
    },
    {
      "buffer": 0,
      "byteLength": 44096,
      "byteOffset": 134896,
      "byteStride": 16,
      "name": "floatBufferViews",
      "target": 34962
    }
  ],
  "buffers": [
    {
      "byteLength": 178992,
      "uri": "scene.bin"
    }
  ],
  "images": [
    {
      "uri": "textures/floor_baseColor.png"
    },
    {
      "uri": "textures/arma_normal.png"
    },
    {
      "uri": "textures/arma_baseColor.png"
    }
  ],
  "materials": [
    {
      "alphaMode": "BLEND",
      "doubleSided": false,
      "emissiveFactor": [
        0,
        0,
        0
      ],
      "name": "floor",
      "pbrMetallicRoughness": {
        "baseColorFactor": [
          1,
          1,
          1,
          0.84999999999999998
        ],
        "baseColorTexture": {
          "index": 0,
          "texCoord": 0
        },
        "metallicFactor": 0,
        "roughnessFactor": 0.59999999999999998
      }
    },
    {
      "doubleSided": false,
      "name": "arma",
      "normalTexture": {
        "index": 1,
        "scale": 1,
        "texCoord": 0
      },
      "pbrMetallicRoughness": {
        "baseColorFactor": [
          1,
          1,
          1,
          1
        ],
        "baseColorTexture": {
          "index": 2,
          "texCoord": 0
        },
        "metallicFactor": 0,
        "roughnessFactor": 0.59999999999999998
      }
    }
  ],
  "meshes": [
    {
      "name": "arma",
      "primitives": [
        {
          "attributes": {
            "NORMAL": 1,
            "POSITION": 0,
            "TANGENT": 2,
            "TEXCOORD_0": 3
          },
          "indices": 4,
          "material": 1,
          "mode": 4
        }
      ]
    },
    {
      "name": "Plane",
      "primitives": [
        {
          "attributes": {
            "NORMAL": 6,
            "POSITION": 5,
            "TANGENT": 7,
            "TEXCOORD_0": 8
          },
          "indices": 9,
          "material": 0,
          "mode": 4
        }
      ]
    }
  ],
  "nodes": [
    {
      "children": [
        1
      ],
      "name": "RootNode (gltf orientation matrix)",
      "rotation": [
        -0.70710678118654746,
        -0,
        -0,
        0.70710678118654757
      ]
    },
    {
      "children": [
        2
      ],
      "name": "RootNode (model correction matrix)"
    },
    {
      "children": [
        3,
        5,
        7,
        9
      ],
      "name": "Root"
    },
    {
      "children": [
        4
      ],
      "matrix": [
        1,
        0,
        0,
        0,
        0,
        1,
        0,
        0,
        0,
        0,
        1,
        0,
        0,
        0,
        -0.013780000000000004,
        1
      ],
      "name": "arma"
    },
    {
      "mesh": 0,
      "name": "arma"
    },
    {
      "children": [
        6
      ],
      "matrix": [
        -0.55203000000000002,
        0.39417000000000008,
        0.73477000000000015,
        0,
        -0.58110000000000006,
        -0.81383000000000005,
        0,
        0,
        0.59798000000000007,
        -0.42698000000000008,
        0.67831000000000008,
        0,
        2.4367099999999997,
        -1.34975,
        3.7980900000000002,
        1
      ],
      "name": "Sun"
    },
    {
      "name": "Sun"
    },
    {
      "children": [
        8
      ],
      "matrix": [
        -0.80219000000000007,
        -0.59564000000000017,
        0.041250000000000009,
        0,
        -0.43286000000000008,
        0.6277600000000001,
        0.64696000000000009,
        0,
        -0.41125,
        0.50112999999999996,
        -0.76141000000000003,
        0,
        -3.7099100000000003,
        0.54102000000000006,
        -4.4970999999999997,
        1
      ],
      "name": "Sun.001"
    },
    {
      "name": "Sun.001"
    },
    {
      "children": [
        10
      ],
      "matrix": [
        3.2338,
        0,
        0,
        0,
        0,
        3.2338,
        0,
        0,
        0,
        0,
        3.2338,
        0,
        0.19258000000000003,
        -2.1257999999999999,
        0.013830000000000004,
        1
      ],
      "name": "Plane"
    },
    {
      "mesh": 1,
      "name": "Plane"
    }
  ],
  "samplers": [
    {
      "magFilter": 9729,
      "minFilter": 9987,
      "wrapS": 10497,
      "wrapT": 10497
    }
  ],
  "scene": 0,
  "scenes": [
    {
      "name": "OSG_Scene",
      "nodes": [
        0
      ]
    }
  ],
  "textures": [
    {
      "sampler": 0,
      "source": 0
    },
    {
      "sampler": 0,
      "source": 1
    },
    {
      "sampler": 0,
      "source": 2
    }
  ]
}

